<?xml version="1.0" encoding="UTF-8"?>
<svg width="9px" height="12px" viewBox="0 0 9 12" version="1.1" xmlns="http://www.w3.org/2000/svg" xmlns:xlink="http://www.w3.org/1999/xlink">
    <!-- Generator: Sketch 52.5 (67469) - http://www.bohemiancoding.com/sketch -->
    <title>Shape</title>
    <desc>Created with Sketch.</desc>
    <g id="Page-1" stroke="none" stroke-width="1" fill="none" fill-rule="evenodd">
        <g id="09.-Lien-He" transform="translate(-932.000000, -755.000000)" fill="#8C929F" fill-rule="nonzero">
            <path d="M936.499812,755 C934.018736,755 932,756.981906 932,759.417963 C932,760.053381 932.132473,760.660062 932.39354,761.221303 C933.518618,763.638325 935.675706,766.190192 936.310173,766.914647 C936.357708,766.968806 936.427009,767 936.499937,767 C936.572866,767 936.642167,766.968806 936.689702,766.914647 C937.323919,766.190314 939.481007,763.63857 940.60646,761.221303 C940.867653,760.660062 941,760.053381 941,759.417963 C940.99975,756.981906 938.981014,755 936.499812,755 Z M936.499812,761.712666 C935.210989,761.712666 934.162342,760.68315 934.162342,759.41784 C934.162342,758.152407 935.210989,757.122892 936.499812,757.122892 C937.788636,757.122892 938.837283,758.152407 938.837283,759.41784 C938.837408,760.68315 937.788761,761.712666 936.499812,761.712666 Z" id="Shape"></path>
        </g>
    </g>
</svg>