<?xml version="1.0" encoding="UTF-8"?>
<svg width="12px" height="8px" viewBox="0 0 12 8" version="1.1" xmlns="http://www.w3.org/2000/svg" xmlns:xlink="http://www.w3.org/1999/xlink">
    <!-- Generator: Sketch 52.5 (67469) - http://www.bohemiancoding.com/sketch -->
    <title>Shape</title>
    <desc>Created with Sketch.</desc>
    <g id="Page-1" stroke="none" stroke-width="1" fill="none" fill-rule="evenodd">
        <g id="02.-Gioi-Thieu---Tong-Quan---Mobile" transform="translate(-348.000000, -340.000000)" fill="#4A4A4A" fill-rule="nonzero">
            <path d="M357.782789,343.53176 L351.722952,338.191706 C351.582796,338.068097 351.395699,338 351.196202,338 C350.996706,338 350.809609,338.068097 350.669453,338.191706 L350.223188,338.584873 C349.9328,338.841066 349.9328,339.257453 350.223188,339.513256 L355.311781,343.997512 L350.217542,348.486744 C350.077385,348.610353 350,348.775132 350,348.950838 C350,349.126739 350.077385,349.291518 350.217542,349.415224 L350.663807,349.808294 C350.804074,349.931903 350.99106,350 351.190556,350 C351.390053,350 351.577149,349.931903 351.717306,349.808294 L357.782789,344.463362 C357.923277,344.339363 358.000441,344.173803 357.999998,343.997805 C358.000441,343.821123 357.923277,343.655661 357.782789,343.53176 Z" id="Shape" transform="translate(354.000000, 344.000000) rotate(-270.000000) translate(-354.000000, -344.000000) "></path>
        </g>
    </g>
</svg>