<?xml version="1.0" encoding="UTF-8"?>
<svg width="8px" height="12px" viewBox="0 0 8 12" version="1.1" xmlns="http://www.w3.org/2000/svg" xmlns:xlink="http://www.w3.org/1999/xlink">
    <!-- Generator: Sketch 52.5 (67469) - http://www.bohemiancoding.com/sketch -->
    <title>Shape</title>
    <desc>Created with Sketch.</desc>
    <g id="Page-1" stroke="none" stroke-width="1" fill="none" fill-rule="evenodd">
        <g id="01.1.-Menu---Mobile" transform="translate(-348.000000, -383.000000)" fill="#4A4A4A" fill-rule="nonzero">
            <path d="M355.782789,388.53176 L349.722952,383.191706 C349.582796,383.068097 349.395699,383 349.196202,383 C348.996706,383 348.809609,383.068097 348.669453,383.191706 L348.223188,383.584873 C347.9328,383.841066 347.9328,384.257453 348.223188,384.513256 L353.311781,388.997512 L348.217542,393.486744 C348.077385,393.610353 348,393.775132 348,393.950838 C348,394.126739 348.077385,394.291518 348.217542,394.415224 L348.663807,394.808294 C348.804074,394.931903 348.99106,395 349.190556,395 C349.390053,395 349.577149,394.931903 349.717306,394.808294 L355.782789,389.463362 C355.923277,389.339363 356.000441,389.173803 355.999998,388.997805 C356.000441,388.821123 355.923277,388.655661 355.782789,388.53176 Z" id="Shape" transform="translate(352.000000, 389.000000) rotate(-360.000000) translate(-352.000000, -389.000000) "></path>
        </g>
    </g>
</svg>