<?xml version="1.0" encoding="UTF-8"?>
<svg width="6px" height="9px" viewBox="0 0 6 9" version="1.1" xmlns="http://www.w3.org/2000/svg" xmlns:xlink="http://www.w3.org/1999/xlink">
    <!-- Generator: Sketch 52.5 (67469) - http://www.bohemiancoding.com/sketch -->
    <title>Shape Copy 3</title>
    <desc>Created with Sketch.</desc>
    <g id="Page-1" stroke="none" stroke-width="1" fill="none" fill-rule="evenodd">
        <g id="01.-Trang-Chu" transform="translate(-825.000000, -1090.000000)" fill="#C81211" fill-rule="nonzero">
            <g id="Group-6" transform="translate(751.000000, 760.000000)">
                <g id="Group-2" transform="translate(0.000000, 325.000000)">
                    <path d="M74.1855196,5.16706344 C74.3093704,5.05584173 74.4557954,5 74.6250342,5 C74.7943072,5 74.9407322,5.05584173 75.0644462,5.16706344 L79.4393436,9.10452111 C79.5630575,9.2157736 79.625,9.34768198 79.625,9.5 C79.625,9.65231802 79.5630575,9.78410327 79.4393436,9.89557124 L75.0644804,13.8330289 C74.9407322,13.9443738 74.7943072,14 74.6250684,14 C74.4557954,14 74.3093704,13.9443738 74.1855196,13.8330289 C74.0618057,13.7216841 74,13.5898988 74,13.4374577 L74,5.56257311 C74,5.41019353 74.0618057,5.27831592 74.1855196,5.16706344 Z" id="Shape-Copy-3"></path>
                </g>
            </g>
        </g>
    </g>
</svg>