<?xml version="1.0" encoding="UTF-8"?>
<svg width="6px" height="9px" viewBox="0 0 6 9" version="1.1" xmlns="http://www.w3.org/2000/svg" xmlns:xlink="http://www.w3.org/1999/xlink">
    <!-- Generator: Sketch 52.5 (67469) - http://www.bohemiancoding.com/sketch -->
    <title>Shape Copy 3</title>
    <desc>Created with Sketch.</desc>
    <g id="Page-1" stroke="none" stroke-width="1" fill="none" fill-rule="evenodd">
        <g id="07.1.-Du-An-Chi-Tiet" transform="translate(-150.000000, -896.000000)" fill="#787979" fill-rule="nonzero">
            <g id="Group-2" transform="translate(136.000000, 313.000000)">
                <g id="Group-9-Copy" transform="translate(0.000000, 569.000000)">
                    <path d="M14.1855196,14.1670634 C14.3093704,14.0558417 14.4557954,14 14.6250342,14 C14.7943072,14 14.9407322,14.0558417 15.0644462,14.1670634 L19.4393436,18.1045211 C19.5630575,18.2157736 19.625,18.347682 19.625,18.5 C19.625,18.652318 19.5630575,18.7841033 19.4393436,18.8955712 L15.0644804,22.8330289 C14.9407322,22.9443738 14.7943072,23 14.6250684,23 C14.4557954,23 14.3093704,22.9443738 14.1855196,22.8330289 C14.0618057,22.7216841 14,22.5898988 14,22.4374577 L14,14.5625731 C14,14.4101935 14.0618057,14.2783159 14.1855196,14.1670634 Z" id="Shape-Copy-3" transform="translate(16.812500, 18.500000) scale(-1, 1) translate(-16.812500, -18.500000) "></path>
                </g>
            </g>
        </g>
    </g>
</svg>