<?xml version="1.0" encoding="UTF-8"?>
<svg width="16px" height="16px" viewBox="0 0 16 16" version="1.1" xmlns="http://www.w3.org/2000/svg" xmlns:xlink="http://www.w3.org/1999/xlink">
    <!-- Generator: Sketch 52.5 (67469) - http://www.bohemiancoding.com/sketch -->
    <title>Combined Shape Copy 2</title>
    <desc>Created with Sketch.</desc>
    <g id="Page-1" stroke="none" stroke-width="1" fill="none" fill-rule="evenodd">
        <g id="01.-Trang-Chu" transform="translate(-153.000000, -1562.000000)" fill="#4F4E4E" fill-rule="nonzero">
            <path d="M160.99984,1562 C165.41116,1562 169,1565.5888 169,1570 C169,1574.4112 165.41116,1578 160.99984,1578 C156.58852,1578 153,1574.4112 153,1570 C153,1565.5888 156.58852,1562 160.99984,1562 Z M160.99984,1576.9508 C164.83248,1576.9508 167.95072,1573.83264 167.95068,1570 C167.95068,1566.16736 164.83252,1563.04924 160.99984,1563.04924 C157.16716,1563.04924 154.0492,1566.16732 154.0492,1570 C154.0492,1573.83264 157.1672,1576.9508 160.99984,1576.9508 Z M163.89624,1567.38104 C164.10092,1567.17608 164.43312,1567.17608 164.638,1567.381 C164.843,1567.5858 164.843,1567.91804 164.638,1568.12284 L160.14324,1572.61756 C160.14272,1572.61808 160.14248,1572.61852 160.14216,1572.61896 C160.03976,1572.72144 159.9052,1572.77264 159.771,1572.77264 C159.6368,1572.77264 159.5026,1572.72144 159.40016,1572.61912 L157.36164,1570.58092 C157.15664,1570.376 157.15664,1570.044 157.36164,1569.839 C157.56656,1569.63408 157.89852,1569.6342 158.10344,1569.83888 L159.771,1571.50608 L163.89624,1567.38104 Z" id="Combined-Shape-Copy-2"></path>
        </g>
    </g>
</svg>