<?xml version="1.0" encoding="UTF-8"?>
<svg width="10px" height="8px" viewBox="0 0 10 8" version="1.1" xmlns="http://www.w3.org/2000/svg" xmlns:xlink="http://www.w3.org/1999/xlink">
    <!-- Generator: Sketch 52.5 (67469) - http://www.bohemiancoding.com/sketch -->
    <title>Combined Shape</title>
    <desc>Created with Sketch.</desc>
    <g id="Page-1" stroke="none" stroke-width="1" fill="none" fill-rule="evenodd">
        <g id="09.-Lien-He" transform="translate(-932.000000, -872.000000)" fill="#8C929F">
            <path d="M932.959801,874.465918 C932.729184,874.306849 932.511486,874.088077 932.306923,873.809661 C932.10234,873.531266 932,873.272672 932,873.034038 C932,872.738607 932.077185,872.492392 932.231555,872.295411 C932.385945,872.09847 932.606379,872 932.892818,872 L941.107103,872 C941.348842,872 941.558135,872.088978 941.734846,872.267032 C941.911576,872.445047 941.99998,872.659083 941.99998,872.909119 C941.99998,873.208332 941.908879,873.494329 941.72648,873.766954 C941.544219,874.039698 941.317335,874.272699 941.04577,874.465799 C939.647016,875.454483 938.776402,876.070042 938.434199,876.312417 C938.397004,876.338984 938.317884,876.396658 938.197015,876.485755 C938.076067,876.574832 937.975682,876.646814 937.895682,876.701721 C937.815682,876.756588 937.718971,876.818102 937.605529,876.886343 C937.492146,876.954384 937.385075,877.005669 937.28467,877.039581 C937.184206,877.073751 937.09117,877.090706 937.005619,877.090706 L936.99999,877.090706 L936.994381,877.090706 C936.90883,877.090706 936.815833,877.073771 936.715369,877.039581 C936.614925,877.005669 936.507952,876.954444 936.394471,876.886343 C936.280951,876.818182 936.18424,876.756608 936.10424,876.701721 C936.024299,876.646814 935.923835,876.574832 935.802927,876.485755 C935.682038,876.396737 935.603015,876.338984 935.56582,876.312417 C935.227273,876.070042 934.739926,875.72444 934.103759,875.275592 C933.467612,874.826744 933.086299,874.556806 932.959801,874.465918 Z M941.441879,875.073815 C941.654045,874.92613 941.840001,874.76125 942,874.579513 L942,879.090781 C942,879.340957 941.912651,879.554794 941.737739,879.732888 C941.562885,879.910983 941.352673,880 941.107182,880 L932.892877,880 C932.647327,880 932.437096,879.910983 932.262261,879.732888 C932.087388,879.554853 932,879.340937 932,879.090781 L932,874.579513 C932.163693,874.765091 932.351565,874.929971 932.563672,875.073815 C933.910376,876.005602 934.834839,876.659113 935.337099,877.034088 C935.549129,877.193117 935.721207,877.31726 935.853237,877.406218 C935.985306,877.495235 936.161117,877.586143 936.380574,877.678902 C936.600031,877.7718 936.804672,877.818109 936.9944,877.818109 L937.00001,877.818109 L937.005698,877.818109 C937.195465,877.818109 937.399989,877.7718 937.619445,877.678902 C937.83898,877.586143 938.014675,877.495235 938.146783,877.406218 C938.278891,877.31726 938.450911,877.193117 938.66296,877.034088 C939.295315,876.568125 940.221771,875.914654 941.441879,875.073815 Z" id="Combined-Shape"></path>
        </g>
    </g>
</svg>