<?xml version="1.0" encoding="UTF-8"?>
<svg width="14px" height="14px" viewBox="0 0 14 14" version="1.1" xmlns="http://www.w3.org/2000/svg" xmlns:xlink="http://www.w3.org/1999/xlink">
    <!-- Generator: Sketch 52.5 (67469) - http://www.bohemiancoding.com/sketch -->
    <title>Shape</title>
    <desc>Created with Sketch.</desc>
    <g id="Page-1" stroke="none" stroke-width="1" fill="none" fill-rule="evenodd">
        <g id="01.-Trang-Chu" transform="translate(-1219.000000, -33.000000)" fill="#4A4A4A">
            <path d="M1232.61039,42.3028956 C1232.86246,41.5813551 1233,40.8064985 1233,40 C1233,39.1935015 1232.86246,38.4186449 1232.61039,37.6971044 C1232.60424,37.67543 1232.59695,37.6542909 1232.58812,37.6339545 C1231.61584,34.9350344 1229.02982,33 1226,33 C1222.97018,33 1220.38409,34.9350344 1219.41188,37.6339545 C1219.40305,37.6543578 1219.39569,37.67543 1219.38961,37.6971044 C1219.13754,38.4186449 1219,39.1935015 1219,40 C1219,40.8064985 1219.13754,41.5813551 1219.38961,42.3028956 C1219.39576,42.32457 1219.40305,42.3457091 1219.41188,42.3660455 C1220.38416,45.0650325 1222.97018,47 1226,47 C1229.02982,47 1231.61584,45.0649656 1232.58812,42.3660455 C1232.59695,42.3457091 1232.60424,42.3246369 1232.61039,42.3028956 Z M1226,45.9966265 C1225.73342,45.9966265 1225.30361,45.5141724 1224.94437,44.4363437 C1224.77097,43.9162271 1224.63216,43.3183104 1224.53102,42.6678804 L1227.46898,42.6678804 C1227.36784,43.3183104 1227.22903,43.9161602 1227.0557,44.4363437 C1226.69639,45.5141724 1226.26658,45.9966265 1226,45.9966265 Z M1224.40926,41.66444 C1224.36103,41.1294056 1224.33554,40.5712252 1224.33554,40 C1224.33554,39.4287748 1224.36103,38.8705944 1224.40926,38.33556 L1227.59067,38.33556 C1227.6389,38.8705944 1227.66439,39.4287748 1227.66439,40 C1227.66439,40.5712252 1227.6389,41.1294056 1227.59067,41.66444 L1224.40926,41.66444 Z M1220.00338,40.0000669 C1220.00338,39.4227542 1220.0856,38.8643062 1220.23859,38.3356269 L1223.4028,38.3356269 C1223.35591,38.8816992 1223.33209,39.4413513 1223.33209,40.0000669 C1223.33209,40.5587825 1223.35584,41.1184346 1223.4028,41.6645069 L1220.23859,41.6645069 C1220.0856,41.1357607 1220.00338,40.5773796 1220.00338,40.0000669 Z M1226,34.0034404 C1226.26658,34.0034404 1226.69646,34.4858945 1227.0557,35.5637232 C1227.22903,36.0838398 1227.3679,36.6817565 1227.46898,37.3321196 L1224.53095,37.3321196 C1224.6321,36.6816896 1224.77091,36.0838398 1224.9443,35.5637232 C1225.30361,34.4858945 1225.73342,34.0034404 1226,34.0034404 Z M1228.59713,38.3356269 L1231.76134,38.3356269 C1231.91433,38.8643062 1231.99655,39.4227542 1231.99655,40.0000669 C1231.99655,40.5773796 1231.91433,41.1358276 1231.76134,41.6645069 L1228.59713,41.6645069 C1228.64402,41.1184346 1228.66784,40.5587825 1228.66784,40.0000669 C1228.66784,39.4413513 1228.64402,38.8816992 1228.59713,38.3356269 Z M1231.36926,37.3321865 L1228.482,37.3321865 C1228.30352,36.1015004 1227.99733,34.9973815 1227.56779,34.2118884 C1229.23318,34.6633696 1230.61293,35.816055 1231.36926,37.3321865 Z M1224.43214,34.2118215 C1224.0026,34.9973146 1223.69641,36.1014335 1223.51793,37.3321865 L1220.63067,37.3321865 C1221.38707,35.816055 1222.76675,34.6633696 1224.43214,34.2118215 Z M1220.63067,42.6678804 L1223.51793,42.6678804 C1223.69641,43.8985665 1224.0026,45.0026854 1224.43214,45.7882454 C1222.76675,45.3366972 1221.38707,44.1840787 1220.63067,42.6678804 Z M1227.56779,45.7882454 C1227.99733,45.0027523 1228.30352,43.8986334 1228.482,42.6678804 L1231.36926,42.6678804 C1230.61293,44.1840787 1229.23318,45.3366972 1227.56779,45.7882454 Z" id="Shape"></path>
        </g>
    </g>
</svg>