<?xml version="1.0" encoding="UTF-8"?>
<svg width="11px" height="14px" viewBox="0 0 11 14" version="1.1" xmlns="http://www.w3.org/2000/svg" xmlns:xlink="http://www.w3.org/1999/xlink">
    <!-- Generator: Sketch 52.5 (67469) - http://www.bohemiancoding.com/sketch -->
    <title>Combined Shape</title>
    <desc>Created with Sketch.</desc>
    <g id="Page-1" stroke="none" stroke-width="1" fill="none" fill-rule="evenodd">
        <g id="01.-Trang-Chu" transform="translate(-543.000000, -2211.000000)" fill="#4A4A4A" fill-rule="nonzero">
            <path d="M553.013119,2213.43417 C554.045991,2214.97318 554.284485,2216.92162 553.651086,2218.64616 C553.483415,2219.11248 553.214993,2219.56871 552.854317,2219.99916 L548.862084,2224.82768 C548.771769,2224.93703 548.639443,2225 548.50016,2225 C548.360877,2225 548.228551,2224.937 548.138236,2224.82768 L544.144888,2219.99784 C543.785805,2219.56986 543.517038,2219.11314 543.34796,2218.64304 C542.715835,2216.92162 542.954329,2214.97318 543.987202,2213.43417 C545.025173,2211.88733 546.6702,2211 548.50016,2211 C550.33012,2211 551.975147,2211.88733 553.013119,2213.43417 Z M552.760842,2218.30332 C553.284887,2216.87642 553.086332,2215.26543 552.230929,2213.99091 C551.372977,2212.71229 550.013181,2211.97902 548.50016,2211.97902 C546.987113,2211.97902 545.627157,2212.71232 544.769232,2213.99091 C543.913988,2215.26543 543.715593,2216.87642 544.238363,2218.30007 C544.368935,2218.6633 544.580024,2219.01899 544.866531,2219.36084 L548.50016,2223.7555 L552.131559,2219.36361 C552.132196,2219.36262 552.132993,2219.3618 552.133789,2219.36098 C552.420455,2219.01883 552.631544,2218.66311 552.760842,2218.30332 Z M548.50016,2213.90443 C549.968037,2213.90443 551.162393,2215.13424 551.162393,2216.64569 C551.162393,2218.15731 549.968196,2219.38696 548.50016,2219.38696 C547.032124,2219.38696 545.837927,2218.15731 545.837927,2216.64569 C545.837927,2215.13407 547.032283,2213.90443 548.50016,2213.90443 Z M548.50016,2218.40791 C549.443833,2218.40791 550.211603,2217.61735 550.211603,2216.64566 C550.211603,2215.67398 549.443833,2214.88341 548.50016,2214.88341 C547.556487,2214.88341 546.788717,2215.67398 546.788717,2216.64566 C546.788717,2217.61735 547.556487,2218.40791 548.50016,2218.40791 Z" id="Combined-Shape"></path>
        </g>
    </g>
</svg>