<?xml version="1.0" encoding="UTF-8"?>
<svg width="131px" height="40px" viewBox="0 0 131 40" version="1.1" xmlns="http://www.w3.org/2000/svg" xmlns:xlink="http://www.w3.org/1999/xlink">
    <!-- Generator: Sketch 52.5 (67469) - http://www.bohemiancoding.com/sketch -->
    <title>Logo Copy</title>
    <desc>Created with Sketch.</desc>
    <defs>
        <linearGradient x1="2.08860188%" y1="47.9633309%" x2="100%" y2="47.9633309%" id="linearGradient-1">
            <stop stop-color="#2A1D1D" offset="0%"></stop>
            <stop stop-color="#CD1110" offset="50.0061922%"></stop>
            <stop stop-color="#2A1D1D" offset="100%"></stop>
        </linearGradient>
    </defs>
    <g id="Page-1" stroke="none" stroke-width="1" fill="none" fill-rule="evenodd">
        <g id="01.-Trang-Chu" transform="translate(-153.000000, -24.000000)">
            <g id="Logo-Copy" transform="translate(153.000000, 24.000000)">
                <path d="M23.452,23 L17.336,23 L17.336,7.996 C17.336,7.61466476 17.2480009,7.27000154 17.072,6.962 C16.8959991,6.65399846 16.6466683,6.3533348 16.324,6.06 C15.7373304,5.56133084 15.0626705,5.312 14.3,5.312 L8.316,5.312 L8.316,23 L2.2,23 L2.2,0.208 L13.904,0.208 C15.9866771,0.208 17.4973286,0.32533216 18.436,0.56 C19.902674,0.91200176 21.0759956,1.68932732 21.956,2.892 C22.9533383,4.30000704 23.452,5.83999164 23.452,7.512 L23.452,23 Z M53.416,11.516 C53.416,15.4760198 52.1546793,18.5119894 49.632,20.624 C47.3146551,22.5600097 44.1613533,23.528 40.172,23.528 C36.1826467,23.528 33.088011,22.6480088 30.888,20.888 C28.3359872,18.8639899 27.06,15.7106881 27.06,11.428 C27.06,7.84931544 28.4386529,5.0333436 31.196,2.98 C33.6600123,1.13199076 36.695982,0.208 40.304,0.208 C44.2640198,0.208 47.4393214,1.1979901 49.83,3.178 C52.2206786,5.1580099 53.416,7.93731544 53.416,11.516 Z M46.596,11.472 C46.596,9.62399076 46.0166725,8.0766729 44.858,6.83 C43.6993275,5.5833271 42.1226766,4.96 40.128,4.96 C38.3093242,4.96 36.8060059,5.59799362 35.618,6.874 C34.4299941,8.15000638 33.836,9.75599032 33.836,11.692 C33.836,13.9213445 34.4373273,15.6959934 35.64,17.016 C36.8426727,18.3360066 38.3973238,18.996 40.304,18.996 C42.4746775,18.996 44.0879947,18.3066736 45.144,16.928 C46.1120048,15.6666604 46.596,13.8480119 46.596,11.472 Z M80.08,0.208 L70.224,23 L62.656,23 L53.284,0.208 L60.544,0.208 L66.616,16.136 L72.908,0.208 L80.08,0.208 Z M103.4,23.044 L86.944,23.044 C85.0959908,23.044 83.5193399,22.4206729 82.214,21.174 C80.9086601,19.9273271 80.256,18.3506762 80.256,16.444 C80.256,14.4493234 80.8499941,12.7993399 82.038,11.494 C83.2260059,10.1886601 84.7146577,9.536 86.504,9.536 L97.152,9.536 L97.152,8.304 C97.152,7.92266476 97.0860007,7.59266806 96.954,7.314 C96.8219993,7.03533194 96.6093348,6.70533524 96.316,6.324 C95.9053313,5.85466432 95.4800022,5.55400066 95.04,5.422 C94.5999978,5.28999934 93.984004,5.224 93.192,5.224 L81.796,5.224 L81.796,0.208 L93.456,0.208 C95.597344,0.208 97.1959947,0.3913315 98.252,0.758 C99.3080053,1.1246685 100.21733,1.674663 100.98,2.408 C101.948005,3.37600484 102.593332,4.43199428 102.916,5.576 C103.238668,6.72000572 103.4,8.18665772 103.4,9.976 L103.4,23.044 Z M97.108,18.38 L97.108,13.892 L89.364,13.892 C88.630663,13.892 88.0073359,14.1046645 87.494,14.53 C86.9806641,14.9553355 86.724,15.5199965 86.724,16.224 C86.724,16.8400031 86.9733308,17.3533313 87.472,17.764 C87.9706692,18.1746687 88.5426634,18.38 89.188,18.38 L97.108,18.38 Z M129.008,16.048 C129.008,17.9840097 128.384673,19.6413264 127.138,21.02 C125.891327,22.3986736 124.314676,23.088 122.408,23.088 L107.316,23.088 L107.316,18.952 L119.724,18.952 C120.604004,18.952 121.344664,18.7320022 121.946,18.292 C122.547336,17.8519978 122.848,17.2213374 122.848,16.4 C122.848,14.4933238 121.557346,13.54 118.976,13.54 L112.64,13.54 C111.29066,13.54 109.98534,12.8946731 108.724,11.604 C107.46266,10.3133269 106.832,8.92000748 106.832,7.424 C106.832,5.31198944 107.301329,3.61067312 108.24,2.32 C109.325339,0.853326 110.923989,0.12 113.036,0.12 L127.556,0.12 L127.556,4.432 L114.62,4.432 C114.121331,4.432 113.688668,4.67399758 113.322,5.158 C112.955331,5.64200242 112.772,6.19199692 112.772,6.808 C112.772,7.48267004 113.013998,8.06199758 113.498,8.546 C113.982002,9.03000242 114.56133,9.272 115.236,9.272 L122.056,9.272 C124.197344,9.272 125.891327,9.90999362 127.138,11.186 C128.384673,12.4620064 129.008,14.0826568 129.008,16.048 Z" id="novas" fill="#000000"></path>
                <path d="M67.8007812,37.515625 L65.4179688,37.515625 L64.8828125,39 L64.109375,39 L66.28125,33.3125 L66.9375,33.3125 L69.1132812,39 L68.34375,39 L67.8007812,37.515625 Z M65.6445312,36.8984375 L67.578125,36.8984375 L66.609375,34.2382812 L65.6445312,36.8984375 Z M72.375,38.5820312 C72.0937486,38.9127621 71.6809923,39.078125 71.1367188,39.078125 C70.6861957,39.078125 70.3431001,38.9472669 70.1074219,38.6855469 C69.8717436,38.4238268 69.7526042,38.0364609 69.75,37.5234375 L69.75,34.7734375 L70.4726562,34.7734375 L70.4726562,37.5039062 C70.4726562,38.1445345 70.7330703,38.4648438 71.2539062,38.4648438 C71.8059923,38.4648438 72.1731762,38.2591166 72.3554688,37.8476562 L72.3554688,34.7734375 L73.078125,34.7734375 L73.078125,39 L72.390625,39 L72.375,38.5820312 Z M75.15625,33.75 L75.15625,34.7734375 L75.9453125,34.7734375 L75.9453125,35.3320312 L75.15625,35.3320312 L75.15625,37.953125 C75.15625,38.1223967 75.1914059,38.2493485 75.2617188,38.3339844 C75.3320316,38.4186202 75.4518221,38.4609375 75.6210938,38.4609375 C75.7044275,38.4609375 75.8190097,38.4453127 75.9648438,38.4140625 L75.9648438,39 C75.7747386,39.0520836 75.5898446,39.078125 75.4101562,39.078125 C75.087238,39.078125 74.8437508,38.9804697 74.6796875,38.7851562 C74.5156242,38.5898428 74.4335938,38.3125018 74.4335938,37.953125 L74.4335938,35.3320312 L73.6640625,35.3320312 L73.6640625,34.7734375 L74.4335938,34.7734375 L74.4335938,33.75 L75.15625,33.75 Z M76.5976562,36.8476562 C76.5976562,36.4335917 76.6790356,36.0611996 76.8417969,35.7304688 C77.0045581,35.3997379 77.2311183,35.1445321 77.5214844,34.9648438 C77.8118504,34.7851554 78.1432273,34.6953125 78.515625,34.6953125 C79.0911487,34.6953125 79.5566388,34.8945293 79.9121094,35.2929688 C80.2675799,35.6914082 80.4453125,36.2213509 80.4453125,36.8828125 L80.4453125,36.9335938 C80.4453125,37.3450541 80.3665372,37.7141911 80.2089844,38.0410156 C80.0514315,38.3678402 79.8261733,38.6223949 79.5332031,38.8046875 C79.2402329,38.9869801 78.9036477,39.078125 78.5234375,39.078125 C77.950518,39.078125 77.4863299,38.8789082 77.1308594,38.4804688 C76.7753888,38.0820293 76.5976562,37.5546908 76.5976562,36.8984375 L76.5976562,36.8476562 Z M77.3242188,36.9335938 C77.3242188,37.4023461 77.4329416,37.7786444 77.6503906,38.0625 C77.8678396,38.3463556 78.1588523,38.4882812 78.5234375,38.4882812 C78.8906268,38.4882812 79.1822906,38.3444025 79.3984375,38.0566406 C79.6145844,37.7688788 79.7226562,37.365888 79.7226562,36.8476562 C79.7226562,36.3841123 79.6126313,36.008465 79.3925781,35.7207031 C79.1725249,35.4329413 78.8802102,35.2890625 78.515625,35.2890625 C78.1588524,35.2890625 77.8710948,35.4309882 77.6523438,35.7148438 C77.4335927,35.9986993 77.3242188,36.4049453 77.3242188,36.9335938 Z M82.03125,34.7734375 L82.0507812,35.2421875 C82.3606786,34.8776023 82.7786432,34.6953125 83.3046875,34.6953125 C83.8958363,34.6953125 84.298176,34.9218727 84.5117188,35.375 C84.6523445,35.171874 84.8352853,35.0078131 85.0605469,34.8828125 C85.2858084,34.7578119 85.5520818,34.6953125 85.859375,34.6953125 C86.786463,34.6953125 87.2578124,35.186193 87.2734375,36.1679688 L87.2734375,39 L86.5507812,39 L86.5507812,36.2109375 C86.5507812,35.9088527 86.4817715,35.6829435 86.34375,35.5332031 C86.2057285,35.3834628 85.97396,35.3085938 85.6484375,35.3085938 C85.380207,35.3085938 85.157553,35.3886711 84.9804688,35.5488281 C84.8033845,35.7089852 84.700521,35.9244778 84.671875,36.1953125 L84.671875,39 L83.9453125,39 L83.9453125,36.2304688 C83.9453125,35.6158823 83.6445343,35.3085938 83.0429688,35.3085938 C82.569008,35.3085938 82.2447925,35.5104146 82.0703125,35.9140625 L82.0703125,39 L81.3476562,39 L81.3476562,34.7734375 L82.03125,34.7734375 Z M90.9726562,39 C90.9309894,38.9166662 90.8971355,38.7682302 90.8710938,38.5546875 C90.5351546,38.9036476 90.1341169,39.078125 89.6679688,39.078125 C89.2513,39.078125 88.9095065,38.9602876 88.6425781,38.7246094 C88.3756497,38.4889311 88.2421875,38.190106 88.2421875,37.828125 C88.2421875,37.3880186 88.4095035,37.0462252 88.7441406,36.8027344 C89.0787777,36.5592436 89.5494761,36.4375 90.15625,36.4375 L90.859375,36.4375 L90.859375,36.1054688 C90.859375,35.8528633 90.7838549,35.6516935 90.6328125,35.5019531 C90.4817701,35.3522128 90.2591161,35.2773438 89.9648438,35.2773438 C89.70703,35.2773438 89.4908863,35.3424473 89.3164062,35.4726562 C89.1419262,35.6028652 89.0546875,35.7604157 89.0546875,35.9453125 L88.328125,35.9453125 C88.328125,35.7343739 88.402994,35.5305999 88.5527344,35.3339844 C88.7024747,35.1373688 88.9055977,34.9817714 89.1621094,34.8671875 C89.4186211,34.7526036 89.7005193,34.6953125 90.0078125,34.6953125 C90.4947941,34.6953125 90.8763007,34.8170561 91.1523438,35.0605469 C91.4283868,35.3040377 91.5716145,35.6393208 91.5820312,36.0664062 L91.5820312,38.0117188 C91.5820312,38.3997415 91.6315099,38.7083322 91.7304688,38.9375 L91.7304688,39 L90.9726562,39 Z M89.7734375,38.4492188 C90.0000011,38.4492188 90.2148427,38.3906256 90.4179688,38.2734375 C90.6210948,38.1562494 90.7682287,38.0039072 90.859375,37.8164062 L90.859375,36.9492188 L90.2929688,36.9492188 C89.4075477,36.9492188 88.9648438,37.2083307 88.9648438,37.7265625 C88.9648438,37.9531261 89.0403638,38.1302077 89.1914062,38.2578125 C89.3424487,38.3854173 89.5364571,38.4492188 89.7734375,38.4492188 Z M93.6953125,33.75 L93.6953125,34.7734375 L94.484375,34.7734375 L94.484375,35.3320312 L93.6953125,35.3320312 L93.6953125,37.953125 C93.6953125,38.1223967 93.7304684,38.2493485 93.8007812,38.3339844 C93.8710941,38.4186202 93.9908846,38.4609375 94.1601562,38.4609375 C94.24349,38.4609375 94.3580722,38.4453127 94.5039062,38.4140625 L94.5039062,39 C94.3138011,39.0520836 94.1289071,39.078125 93.9492188,39.078125 C93.6263005,39.078125 93.3828133,38.9804697 93.21875,38.7851562 C93.0546867,38.5898428 92.9726562,38.3125018 92.9726562,37.953125 L92.9726562,35.3320312 L92.203125,35.3320312 L92.203125,34.7734375 L92.9726562,34.7734375 L92.9726562,33.75 L93.6953125,33.75 Z M96.1132812,39 L95.390625,39 L95.390625,34.7734375 L96.1132812,34.7734375 L96.1132812,39 Z M95.3320312,33.6523438 C95.3320312,33.5351557 95.3678382,33.4361983 95.4394531,33.3554688 C95.5110681,33.2747392 95.6171868,33.234375 95.7578125,33.234375 C95.8984382,33.234375 96.005208,33.2747392 96.078125,33.3554688 C96.151042,33.4361983 96.1875,33.5351557 96.1875,33.6523438 C96.1875,33.7695318 96.151042,33.8671871 96.078125,33.9453125 C96.005208,34.0234379 95.8984382,34.0625 95.7578125,34.0625 C95.6171868,34.0625 95.5110681,34.0234379 95.4394531,33.9453125 C95.3678382,33.8671871 95.3320312,33.7695318 95.3320312,33.6523438 Z M97.078125,36.8476562 C97.078125,36.4335917 97.1595044,36.0611996 97.3222656,35.7304688 C97.4850269,35.3997379 97.7115871,35.1445321 98.0019531,34.9648438 C98.2923192,34.7851554 98.6236961,34.6953125 98.9960938,34.6953125 C99.5716175,34.6953125 100.037108,34.8945293 100.392578,35.2929688 C100.748049,35.6914082 100.925781,36.2213509 100.925781,36.8828125 L100.925781,36.9335938 C100.925781,37.3450541 100.847006,37.7141911 100.689453,38.0410156 C100.5319,38.3678402 100.306642,38.6223949 100.013672,38.8046875 C99.7207017,38.9869801 99.3841165,39.078125 99.0039062,39.078125 C98.4309867,39.078125 97.9667987,38.8789082 97.6113281,38.4804688 C97.2558576,38.0820293 97.078125,37.5546908 97.078125,36.8984375 L97.078125,36.8476562 Z M97.8046875,36.9335938 C97.8046875,37.4023461 97.9134104,37.7786444 98.1308594,38.0625 C98.3483084,38.3463556 98.6393211,38.4882812 99.0039062,38.4882812 C99.3710956,38.4882812 99.6627593,38.3444025 99.8789062,38.0566406 C100.095053,37.7688788 100.203125,37.365888 100.203125,36.8476562 C100.203125,36.3841123 100.0931,36.008465 99.8730469,35.7207031 C99.6529937,35.4329413 99.3606789,35.2890625 98.9960938,35.2890625 C98.6393211,35.2890625 98.3515636,35.4309882 98.1328125,35.7148438 C97.9140614,35.9986993 97.8046875,36.4049453 97.8046875,36.9335938 Z M102.515625,34.7734375 L102.539062,35.3046875 C102.861981,34.8984355 103.283852,34.6953125 103.804688,34.6953125 C104.697921,34.6953125 105.148437,35.1992137 105.15625,36.2070312 L105.15625,39 L104.433594,39 L104.433594,36.203125 C104.43099,35.898436 104.361329,35.6731778 104.224609,35.5273438 C104.08789,35.3815097 103.875001,35.3085938 103.585938,35.3085938 C103.351561,35.3085938 103.145834,35.3710931 102.96875,35.4960938 C102.791666,35.6210944 102.653646,35.7851552 102.554688,35.9882812 L102.554688,39 L101.832031,39 L101.832031,34.7734375 L102.515625,34.7734375 Z M110.015625,36.4648438 C109.372393,36.279947 108.904298,36.0527357 108.611328,35.7832031 C108.318358,35.5136705 108.171875,35.1809916 108.171875,34.7851562 C108.171875,34.3372373 108.35091,33.9667983 108.708984,33.6738281 C109.067059,33.3808579 109.532549,33.234375 110.105469,33.234375 C110.496096,33.234375 110.8444,33.3098951 111.150391,33.4609375 C111.456382,33.6119799 111.693359,33.8203112 111.861328,34.0859375 C112.029298,34.3515638 112.113281,34.6419255 112.113281,34.9570312 L111.359375,34.9570312 C111.359375,34.6132795 111.250001,34.3430999 111.03125,34.1464844 C110.812499,33.9498688 110.503908,33.8515625 110.105469,33.8515625 C109.735675,33.8515625 109.447267,33.9329419 109.240234,34.0957031 C109.033202,34.2584644 108.929688,34.4843736 108.929688,34.7734375 C108.929688,35.0052095 109.027994,35.2011711 109.224609,35.3613281 C109.421225,35.5214852 109.755857,35.6679681 110.228516,35.8007812 C110.701174,35.9335944 111.070962,36.0800773 111.337891,36.2402344 C111.604819,36.4003914 111.802734,36.5872385 111.931641,36.8007812 C112.060548,37.014324 112.125,37.2656236 112.125,37.5546875 C112.125,38.0156273 111.945314,38.3847642 111.585938,38.6621094 C111.226561,38.9394545 110.746097,39.078125 110.144531,39.078125 C109.753904,39.078125 109.389325,39.003256 109.050781,38.8535156 C108.712238,38.7037753 108.451173,38.4986992 108.267578,38.2382812 C108.083983,37.9778633 107.992188,37.6822933 107.992188,37.3515625 L108.746094,37.3515625 C108.746094,37.6953142 108.873046,37.9667959 109.126953,38.1660156 C109.380861,38.3652354 109.72005,38.4648438 110.144531,38.4648438 C110.540367,38.4648438 110.843749,38.3841154 111.054688,38.2226562 C111.265626,38.0611971 111.371094,37.8411472 111.371094,37.5625 C111.371094,37.2838528 111.273438,37.0683601 111.078125,36.9160156 C110.882812,36.7636711 110.528648,36.613282 110.015625,36.4648438 Z M113.652344,34.7734375 L113.671875,35.2421875 C113.981772,34.8776023 114.399737,34.6953125 114.925781,34.6953125 C115.51693,34.6953125 115.91927,34.9218727 116.132812,35.375 C116.273438,35.171874 116.456379,35.0078131 116.681641,34.8828125 C116.906902,34.7578119 117.173176,34.6953125 117.480469,34.6953125 C118.407557,34.6953125 118.878906,35.186193 118.894531,36.1679688 L118.894531,39 L118.171875,39 L118.171875,36.2109375 C118.171875,35.9088527 118.102865,35.6829435 117.964844,35.5332031 C117.826822,35.3834628 117.595054,35.3085938 117.269531,35.3085938 C117.001301,35.3085938 116.778647,35.3886711 116.601562,35.5488281 C116.424478,35.7089852 116.321615,35.9244778 116.292969,36.1953125 L116.292969,39 L115.566406,39 L115.566406,36.2304688 C115.566406,35.6158823 115.265628,35.3085938 114.664062,35.3085938 C114.190102,35.3085938 113.865886,35.5104146 113.691406,35.9140625 L113.691406,39 L112.96875,39 L112.96875,34.7734375 L113.652344,34.7734375 Z M122.59375,39 C122.552083,38.9166662 122.518229,38.7682302 122.492188,38.5546875 C122.156248,38.9036476 121.755211,39.078125 121.289062,39.078125 C120.872394,39.078125 120.5306,38.9602876 120.263672,38.7246094 C119.996743,38.4889311 119.863281,38.190106 119.863281,37.828125 C119.863281,37.3880186 120.030597,37.0462252 120.365234,36.8027344 C120.699871,36.5592436 121.17057,36.4375 121.777344,36.4375 L122.480469,36.4375 L122.480469,36.1054688 C122.480469,35.8528633 122.404949,35.6516935 122.253906,35.5019531 C122.102864,35.3522128 121.88021,35.2773438 121.585938,35.2773438 C121.328124,35.2773438 121.11198,35.3424473 120.9375,35.4726562 C120.76302,35.6028652 120.675781,35.7604157 120.675781,35.9453125 L119.949219,35.9453125 C119.949219,35.7343739 120.024088,35.5305999 120.173828,35.3339844 C120.323568,35.1373688 120.526691,34.9817714 120.783203,34.8671875 C121.039715,34.7526036 121.321613,34.6953125 121.628906,34.6953125 C122.115888,34.6953125 122.497394,34.8170561 122.773438,35.0605469 C123.049481,35.3040377 123.192708,35.6393208 123.203125,36.0664062 L123.203125,38.0117188 C123.203125,38.3997415 123.252604,38.7083322 123.351562,38.9375 L123.351562,39 L122.59375,39 Z M121.394531,38.4492188 C121.621095,38.4492188 121.835936,38.3906256 122.039062,38.2734375 C122.242189,38.1562494 122.389322,38.0039072 122.480469,37.8164062 L122.480469,36.9492188 L121.914062,36.9492188 C121.028641,36.9492188 120.585938,37.2083307 120.585938,37.7265625 C120.585938,37.9531261 120.661458,38.1302077 120.8125,38.2578125 C120.963542,38.3854173 121.157551,38.4492188 121.394531,38.4492188 Z M126.378906,35.421875 C126.269531,35.4036457 126.151042,35.3945312 126.023438,35.3945312 C125.549477,35.3945312 125.227865,35.5963521 125.058594,36 L125.058594,39 L124.335938,39 L124.335938,34.7734375 L125.039062,34.7734375 L125.050781,35.2617188 C125.287762,34.8841127 125.623696,34.6953125 126.058594,34.6953125 C126.199219,34.6953125 126.305989,34.7135415 126.378906,34.75 L126.378906,35.421875 Z M128.023438,33.75 L128.023438,34.7734375 L128.8125,34.7734375 L128.8125,35.3320312 L128.023438,35.3320312 L128.023438,37.953125 C128.023438,38.1223967 128.058593,38.2493485 128.128906,38.3339844 C128.199219,38.4186202 128.31901,38.4609375 128.488281,38.4609375 C128.571615,38.4609375 128.686197,38.4453127 128.832031,38.4140625 L128.832031,39 C128.641926,39.0520836 128.457032,39.078125 128.277344,39.078125 C127.954425,39.078125 127.710938,38.9804697 127.546875,38.7851562 C127.382812,38.5898428 127.300781,38.3125018 127.300781,37.953125 L127.300781,35.3320312 L126.53125,35.3320312 L126.53125,34.7734375 L127.300781,34.7734375 L127.300781,33.75 L128.023438,33.75 Z" id="Automation-Smart" fill="#373737"></path>
                <path d="M65.5,30 C101.674651,30 131,30 131,28.5 C131,27 101.674651,27 65.5,27 C29.3253489,27 0,27 0,28.5 C0,30 29.3253489,30 65.5,30 Z" id="Oval" fill="url(#linearGradient-1)" fill-rule="nonzero"></path>
            </g>
        </g>
    </g>
</svg>