<?xml version="1.0" encoding="UTF-8"?>
<svg width="88px" height="28px" viewBox="0 0 88 28" version="1.1" xmlns="http://www.w3.org/2000/svg" xmlns:xlink="http://www.w3.org/1999/xlink">
    <!-- Generator: Sketch 52.5 (67469) - http://www.bohemiancoding.com/sketch -->
    <title>Logo</title>
    <desc>Created with Sketch.</desc>
    <defs>
        <linearGradient x1="2.08860188%" y1="47.9633309%" x2="100%" y2="47.9633309%" id="linearGradient-1">
            <stop stop-color="#911212" offset="0%"></stop>
            <stop stop-color="#CD1110" offset="50.0061922%"></stop>
            <stop stop-color="#911212" offset="100%"></stop>
        </linearGradient>
    </defs>
    <g id="Page-1" stroke="none" stroke-width="1" fill="none" fill-rule="evenodd">
        <g id="01.-Trang-Chu" transform="translate(-153.000000, -3802.000000)">
            <g id="Group-7" transform="translate(0.000000, 3399.000000)">
                <g id="Group-15" transform="translate(0.000000, 374.000000)">
                    <g id="Group-14">
                        <g id="Logo" transform="translate(153.000000, 29.000000)">
                            <path d="M15.6346667,16 L11.5573333,16 L11.5573333,5.99733333 C11.5573333,5.74310984 11.4986673,5.51333436 11.3813333,5.308 C11.2639994,5.10266564 11.0977789,4.9022232 10.8826667,4.70666667 C10.4915536,4.37422056 10.0417803,4.208 9.53333333,4.208 L5.544,4.208 L5.544,16 L1.46666667,16 L1.46666667,0.805333333 L9.26933333,0.805333333 C10.6577847,0.805333333 11.6648858,0.883554773 12.2906667,1.04 C13.2684493,1.27466784 14.0506637,1.79288488 14.6373333,2.59466667 C15.3022255,3.53333803 15.6346667,4.55999443 15.6346667,5.67466667 L15.6346667,16 Z M35.6106667,8.344 C35.6106667,10.9840132 34.7697862,13.007993 33.088,14.416 C31.5431034,15.7066731 29.4409022,16.352 26.7813333,16.352 C24.1217645,16.352 22.058674,15.7653392 20.592,14.592 C18.8906582,13.2426599 18.04,11.1404587 18.04,8.28533333 C18.04,5.89954363 18.9591019,4.02222907 20.7973333,2.65333333 C22.4400082,1.42132717 24.463988,0.805333333 26.8693333,0.805333333 C29.5093465,0.805333333 31.6262143,1.46532673 33.22,2.78533333 C34.8137857,4.10533993 35.6106667,5.95821029 35.6106667,8.344 Z M31.064,8.31466667 C31.064,7.08266051 30.6777816,6.05111527 29.9053333,5.22 C29.132885,4.38888473 28.0817844,3.97333333 26.752,3.97333333 C25.5395495,3.97333333 24.5373373,4.39866241 23.7453333,5.24933333 C22.9533294,6.10000425 22.5573333,7.17066021 22.5573333,8.46133333 C22.5573333,9.94756299 22.9582182,11.1306623 23.76,12.0106667 C24.5617818,12.8906711 25.5982159,13.3306667 26.8693333,13.3306667 C28.3164517,13.3306667 29.3919965,12.8711157 30.096,11.952 C30.7413366,11.1111069 31.064,9.89867459 31.064,8.31466667 Z M53.3866667,0.805333333 L46.816,16 L41.7706667,16 L35.5226667,0.805333333 L40.3626667,0.805333333 L44.4106667,11.424 L48.6053333,0.805333333 L53.3866667,0.805333333 Z M68.9333333,16.0293333 L57.9626667,16.0293333 C56.7306605,16.0293333 55.6795599,15.6137819 54.8093333,14.7826667 C53.9391068,13.9515514 53.504,12.9004508 53.504,11.6293333 C53.504,10.2995489 53.899996,9.19955991 54.692,8.32933333 C55.484004,7.45910676 56.4764385,7.024 57.6693333,7.024 L64.768,7.024 L64.768,6.20266667 C64.768,5.94844317 64.7240004,5.72844537 64.636,5.54266667 C64.5479996,5.35688796 64.4062232,5.13689016 64.2106667,4.88266667 C63.9368875,4.56977621 63.6533348,4.36933377 63.36,4.28133333 C63.0666652,4.19333289 62.6560026,4.14933333 62.128,4.14933333 L54.5306667,4.14933333 L54.5306667,0.805333333 L62.304,0.805333333 C63.7315627,0.805333333 64.7973298,0.927554333 65.5013333,1.172 C66.2053369,1.41644567 66.811553,1.78310867 67.32,2.272 C67.9653366,2.91733656 68.3955545,3.62132952 68.6106667,4.384 C68.8257789,5.14667048 68.9333333,6.12443848 68.9333333,7.31733333 L68.9333333,16.0293333 Z M64.7386667,12.92 L64.7386667,9.928 L59.576,9.928 C59.0871087,9.928 58.6715573,10.0697764 58.3293333,10.3533333 C57.9871094,10.6368903 57.816,11.013331 57.816,11.4826667 C57.816,11.8933354 57.9822206,12.2355542 58.3146667,12.5093333 C58.6471128,12.7831125 59.0284423,12.92 59.4586667,12.92 L64.7386667,12.92 Z M86.0053333,11.3653333 C86.0053333,12.6560065 85.5897819,13.7608843 84.7586667,14.68 C83.9275514,15.5991157 82.8764508,16.0586667 81.6053333,16.0586667 L71.544,16.0586667 L71.544,13.3013333 L79.816,13.3013333 C80.4026696,13.3013333 80.8964424,13.1546681 81.2973333,12.8613333 C81.6982242,12.5679985 81.8986667,12.1475583 81.8986667,11.6 C81.8986667,10.3288825 81.0382308,9.69333333 79.3173333,9.69333333 L75.0933333,9.69333333 C74.1937733,9.69333333 73.3235598,9.26311541 72.4826667,8.40266667 C71.6417736,7.54221792 71.2213333,6.61333832 71.2213333,5.616 C71.2213333,4.20799296 71.5342191,3.07378208 72.16,2.21333333 C72.8835592,1.23555067 73.9493263,0.746666667 75.3573333,0.746666667 L85.0373333,0.746666667 L85.0373333,3.62133333 L76.4133333,3.62133333 C76.0808872,3.62133333 75.7924457,3.78266505 75.548,4.10533333 C75.3035543,4.42800161 75.1813333,4.79466461 75.1813333,5.20533333 C75.1813333,5.65511336 75.3426651,6.04133172 75.6653333,6.364 C75.9880016,6.68666828 76.37422,6.848 76.824,6.848 L81.3706667,6.848 C82.7982294,6.848 83.9275514,7.27332908 84.7586667,8.124 C85.5897819,8.97467092 86.0053333,10.0551046 86.0053333,11.3653333 Z" id="novas" fill="#FFFFFF"></path>
                            <path d="M45.2005208,26.0104167 L43.6119792,26.0104167 L43.2552083,27 L42.7395833,27 L44.1875,23.2083333 L44.625,23.2083333 L46.0755208,27 L45.5625,27 L45.2005208,26.0104167 Z M43.7630208,25.5989583 L45.0520833,25.5989583 L44.40625,23.8255208 L43.7630208,25.5989583 Z M48.25,26.7213542 C48.0624991,26.9418414 47.7873282,27.0520833 47.4244792,27.0520833 C47.1241304,27.0520833 46.8954001,26.9648446 46.7382813,26.7903646 C46.5811624,26.6158845 46.5017361,26.3576406 46.5,26.015625 L46.5,24.1822917 L46.9817708,24.1822917 L46.9817708,26.0026042 C46.9817708,26.4296896 47.1553802,26.6432292 47.5026042,26.6432292 C47.8706616,26.6432292 48.1154508,26.5060778 48.2369792,26.2317708 L48.2369792,24.1822917 L48.71875,24.1822917 L48.71875,27 L48.2604167,27 L48.25,26.7213542 Z M50.1041667,23.5 L50.1041667,24.1822917 L50.6302083,24.1822917 L50.6302083,24.5546875 L50.1041667,24.5546875 L50.1041667,26.3020833 C50.1041667,26.4149311 50.1276039,26.4995657 50.1744792,26.5559896 C50.2213544,26.6124135 50.3012147,26.640625 50.4140625,26.640625 C50.4696183,26.640625 50.5460065,26.6302084 50.6432292,26.609375 L50.6432292,27 C50.5164924,27.0347224 50.3932298,27.0520833 50.2734375,27.0520833 C50.0581586,27.0520833 49.8958339,26.9869798 49.7864583,26.8567708 C49.6770828,26.7265618 49.6223958,26.5416679 49.6223958,26.3020833 L49.6223958,24.5546875 L49.109375,24.5546875 L49.109375,24.1822917 L49.6223958,24.1822917 L49.6223958,23.5 L50.1041667,23.5 Z M51.0651042,25.5651042 C51.0651042,25.2890611 51.1193571,25.0407997 51.2278646,24.8203125 C51.3363721,24.5998253 51.4874122,24.4296881 51.6809896,24.3098958 C51.8745669,24.1901036 52.0954849,24.1302083 52.34375,24.1302083 C52.7274325,24.1302083 53.0377592,24.2630195 53.2747396,24.5286458 C53.5117199,24.7942722 53.6302083,25.1475672 53.6302083,25.5885417 L53.6302083,25.6223958 C53.6302083,25.8967028 53.5776915,26.142794 53.4726563,26.3606771 C53.367621,26.5785601 53.2174489,26.7482633 53.0221354,26.8697917 C52.8268219,26.9913201 52.6024318,27.0520833 52.3489583,27.0520833 C51.967012,27.0520833 51.6575533,26.9192722 51.4205729,26.6536458 C51.1835926,26.3880195 51.0651042,26.0364605 51.0651042,25.5989583 L51.0651042,25.5651042 Z M51.5494792,25.6223958 C51.5494792,25.9348974 51.6219611,26.1857629 51.7669271,26.375 C51.9118931,26.5642371 52.1059016,26.6588542 52.3489583,26.6588542 C52.5937512,26.6588542 52.7881937,26.562935 52.9322917,26.3710938 C53.0763896,26.1792525 53.1484375,25.910592 53.1484375,25.5651042 C53.1484375,25.2560748 53.0750875,25.0056433 52.9283854,24.8138021 C52.7816833,24.6219608 52.5868068,24.5260417 52.34375,24.5260417 C52.1059016,24.5260417 51.9140632,24.6206588 51.7682292,24.8098958 C51.6223951,24.9991329 51.5494792,25.2699635 51.5494792,25.6223958 Z M54.6875,24.1822917 L54.7005208,24.4947917 C54.9071191,24.2517349 55.1857621,24.1302083 55.5364583,24.1302083 C55.9305575,24.1302083 56.198784,24.2812485 56.3411458,24.5833333 C56.4348963,24.447916 56.5568569,24.3385421 56.7070313,24.2552083 C56.8572056,24.1718746 57.0347212,24.1302083 57.2395833,24.1302083 C57.857642,24.1302083 58.1718749,24.457462 58.1822917,25.1119792 L58.1822917,27 L57.7005208,27 L57.7005208,25.140625 C57.7005208,24.9392351 57.6545143,24.788629 57.5625,24.6888021 C57.4704857,24.5889752 57.3159733,24.5390625 57.0989583,24.5390625 C56.920138,24.5390625 56.771702,24.5924474 56.6536458,24.6992188 C56.5355897,24.8059901 56.467014,24.9496519 56.4479167,25.1302083 L56.4479167,27 L55.9635417,27 L55.9635417,25.1536458 C55.9635417,24.7439216 55.7630228,24.5390625 55.3619792,24.5390625 C55.0460054,24.5390625 54.8298617,24.6736098 54.7135417,24.9427083 L54.7135417,27 L54.2317708,27 L54.2317708,24.1822917 L54.6875,24.1822917 Z M60.6484375,27 C60.6206596,26.9444442 60.5980904,26.8454868 60.5807292,26.703125 C60.3567697,26.9357651 60.0894113,27.0520833 59.7786458,27.0520833 C59.5008667,27.0520833 59.2730044,26.9735251 59.0950521,26.8164062 C58.9170998,26.6592874 58.828125,26.4600707 58.828125,26.21875 C58.828125,25.9253458 58.939669,25.6974835 59.1627604,25.5351562 C59.3858518,25.372829 59.6996508,25.2916667 60.1041667,25.2916667 L60.5729167,25.2916667 L60.5729167,25.0703125 C60.5729167,24.9019089 60.5225699,24.7677956 60.421875,24.6679688 C60.3211801,24.5681419 60.172744,24.5182292 59.9765625,24.5182292 C59.8046866,24.5182292 59.6605909,24.5616315 59.5442708,24.6484375 C59.4279508,24.7352435 59.3697917,24.8402772 59.3697917,24.9635417 L58.8854167,24.9635417 C58.8854167,24.822916 58.9353294,24.6870666 59.0351563,24.5559896 C59.1349831,24.4249125 59.2703985,24.3211809 59.4414063,24.2447917 C59.612414,24.1684024 59.8003462,24.1302083 60.0052083,24.1302083 C60.3298627,24.1302083 60.5842005,24.2113707 60.7682292,24.3736979 C60.9522579,24.5360251 61.047743,24.7595472 61.0546875,25.0442708 L61.0546875,26.3411458 C61.0546875,26.5998277 61.0876733,26.8055548 61.1536458,26.9583333 L61.1536458,27 L60.6484375,27 Z M59.8489583,26.6328125 C60.0000008,26.6328125 60.1432285,26.5937504 60.2786458,26.515625 C60.4140632,26.4374996 60.5121525,26.3359381 60.5729167,26.2109375 L60.5729167,25.6328125 L60.1953125,25.6328125 C59.6050318,25.6328125 59.3098958,25.8055538 59.3098958,26.1510417 C59.3098958,26.3020841 59.3602426,26.4201385 59.4609375,26.5052083 C59.5616324,26.5902782 59.6909714,26.6328125 59.8489583,26.6328125 Z M62.4635417,23.5 L62.4635417,24.1822917 L62.9895833,24.1822917 L62.9895833,24.5546875 L62.4635417,24.5546875 L62.4635417,26.3020833 C62.4635417,26.4149311 62.4869789,26.4995657 62.5338542,26.5559896 C62.5807294,26.6124135 62.6605897,26.640625 62.7734375,26.640625 C62.8289933,26.640625 62.9053815,26.6302084 63.0026042,26.609375 L63.0026042,27 C62.8758674,27.0347224 62.7526048,27.0520833 62.6328125,27.0520833 C62.4175336,27.0520833 62.2552089,26.9869798 62.1458333,26.8567708 C62.0364578,26.7265618 61.9817708,26.5416679 61.9817708,26.3020833 L61.9817708,24.5546875 L61.46875,24.5546875 L61.46875,24.1822917 L61.9817708,24.1822917 L61.9817708,23.5 L62.4635417,23.5 Z M64.0755208,27 L63.59375,27 L63.59375,24.1822917 L64.0755208,24.1822917 L64.0755208,27 Z M63.5546875,23.4348958 C63.5546875,23.3567704 63.5785588,23.2907989 63.6263021,23.2369792 C63.6740454,23.1831595 63.7447912,23.15625 63.8385417,23.15625 C63.9322921,23.15625 64.003472,23.1831595 64.0520833,23.2369792 C64.1006947,23.2907989 64.125,23.3567704 64.125,23.4348958 C64.125,23.5130212 64.1006947,23.5781247 64.0520833,23.6302083 C64.003472,23.6822919 63.9322921,23.7083333 63.8385417,23.7083333 C63.7447912,23.7083333 63.6740454,23.6822919 63.6263021,23.6302083 C63.5785588,23.5781247 63.5546875,23.5130212 63.5546875,23.4348958 Z M64.71875,25.5651042 C64.71875,25.2890611 64.7730029,25.0407997 64.8815104,24.8203125 C64.9900179,24.5998253 65.1410581,24.4296881 65.3346354,24.3098958 C65.5282128,24.1901036 65.7491307,24.1302083 65.9973958,24.1302083 C66.3810783,24.1302083 66.6914051,24.2630195 66.9283854,24.5286458 C67.1653658,24.7942722 67.2838542,25.1475672 67.2838542,25.5885417 L67.2838542,25.6223958 C67.2838542,25.8967028 67.2313373,26.142794 67.1263021,26.3606771 C67.0212668,26.5785601 66.8710947,26.7482633 66.6757813,26.8697917 C66.4804678,26.9913201 66.2560777,27.0520833 66.0026042,27.0520833 C65.6206578,27.0520833 65.3111991,26.9192722 65.0742188,26.6536458 C64.8372384,26.3880195 64.71875,26.0364605 64.71875,25.5989583 L64.71875,25.5651042 Z M65.203125,25.6223958 C65.203125,25.9348974 65.2756069,26.1857629 65.4205729,26.375 C65.5655389,26.5642371 65.7595474,26.6588542 66.0026042,26.6588542 C66.2473971,26.6588542 66.4418396,26.562935 66.5859375,26.3710938 C66.7300354,26.1792525 66.8020833,25.910592 66.8020833,25.5651042 C66.8020833,25.2560748 66.7287334,25.0056433 66.5820313,24.8138021 C66.4353291,24.6219608 66.2404526,24.5260417 65.9973958,24.5260417 C65.7595474,24.5260417 65.5677091,24.6206588 65.421875,24.8098958 C65.2760409,24.9991329 65.203125,25.2699635 65.203125,25.6223958 Z M68.34375,24.1822917 L68.359375,24.5364583 C68.5746539,24.2656236 68.855901,24.1302083 69.203125,24.1302083 C69.7986141,24.1302083 70.0989583,24.4661425 70.1041667,25.1380208 L70.1041667,27 L69.6223958,27 L69.6223958,25.1354167 C69.6206597,24.9322907 69.5742192,24.7821185 69.4830729,24.6848958 C69.3919266,24.5876731 69.250001,24.5390625 69.0572917,24.5390625 C68.9010409,24.5390625 68.7638895,24.5807287 68.6458333,24.6640625 C68.5277772,24.7473963 68.4357642,24.8567702 68.3697917,24.9921875 L68.3697917,27 L67.8880208,27 L67.8880208,24.1822917 L68.34375,24.1822917 Z M73.34375,25.3098958 C72.9149284,25.1866313 72.6028656,25.0351571 72.4075521,24.8554688 C72.2122386,24.6757804 72.1145833,24.4539944 72.1145833,24.1901042 C72.1145833,23.8914916 72.2339398,23.6445322 72.4726563,23.4492188 C72.7113727,23.2539053 73.0216995,23.15625 73.4036458,23.15625 C73.6640638,23.15625 73.8962663,23.2065967 74.1002604,23.3072917 C74.3042545,23.4079866 74.462239,23.5468741 74.5742188,23.7239583 C74.6861985,23.9010426 74.7421875,24.094617 74.7421875,24.3046875 L74.2395833,24.3046875 C74.2395833,24.0755197 74.1666674,23.8954 74.0208333,23.7643229 C73.8749993,23.6332459 73.6692722,23.5677083 73.4036458,23.5677083 C73.1571168,23.5677083 72.9648444,23.6219613 72.8268229,23.7304688 C72.6888014,23.8389762 72.6197917,23.9895824 72.6197917,24.1822917 C72.6197917,24.3368063 72.6853292,24.4674474 72.8164063,24.5742188 C72.9474833,24.6809901 73.1705713,24.7786454 73.4856771,24.8671875 C73.8007828,24.9557296 74.0473081,25.0533849 74.2252604,25.1601562 C74.4032127,25.2669276 74.5351558,25.3914923 74.6210938,25.5338542 C74.7070317,25.676216 74.75,25.843749 74.75,26.0364583 C74.75,26.3437515 74.6302095,26.5898428 74.390625,26.7747396 C74.1510405,26.9596363 73.8307312,27.0520833 73.4296875,27.0520833 C73.1692695,27.0520833 72.9262164,27.0021706 72.7005208,26.9023438 C72.4748253,26.8025169 72.3007819,26.6657995 72.1783854,26.4921875 C72.055989,26.3185755 71.9947917,26.1215289 71.9947917,25.9010417 L72.4973958,25.9010417 C72.4973958,26.1302095 72.5820304,26.3111973 72.7513021,26.4440104 C72.9205738,26.5768236 73.1467,26.6432292 73.4296875,26.6432292 C73.6935777,26.6432292 73.8958326,26.5894103 74.0364583,26.4817708 C74.177084,26.3741314 74.2473958,26.2274315 74.2473958,26.0416667 C74.2473958,25.8559018 74.1822923,25.7122401 74.0520833,25.6106771 C73.9218743,25.5091141 73.6857656,25.4088547 73.34375,25.3098958 Z M75.7682292,24.1822917 L75.78125,24.4947917 C75.9878483,24.2517349 76.2664913,24.1302083 76.6171875,24.1302083 C77.0112867,24.1302083 77.2795132,24.2812485 77.421875,24.5833333 C77.5156255,24.447916 77.6375861,24.3385421 77.7877604,24.2552083 C77.9379348,24.1718746 78.1154504,24.1302083 78.3203125,24.1302083 C78.9383711,24.1302083 79.2526041,24.457462 79.2630208,25.1119792 L79.2630208,27 L78.78125,27 L78.78125,25.140625 C78.78125,24.9392351 78.7352435,24.788629 78.6432292,24.6888021 C78.5512148,24.5889752 78.3967025,24.5390625 78.1796875,24.5390625 C78.0008672,24.5390625 77.8524311,24.5924474 77.734375,24.6992188 C77.6163189,24.8059901 77.5477432,24.9496519 77.5286458,25.1302083 L77.5286458,27 L77.0442708,27 L77.0442708,25.1536458 C77.0442708,24.7439216 76.843752,24.5390625 76.4427083,24.5390625 C76.1267345,24.5390625 75.9105909,24.6736098 75.7942708,24.9427083 L75.7942708,27 L75.3125,27 L75.3125,24.1822917 L75.7682292,24.1822917 Z M81.7291667,27 C81.7013888,26.9444442 81.6788195,26.8454868 81.6614583,26.703125 C81.4374989,26.9357651 81.1701404,27.0520833 80.859375,27.0520833 C80.5815958,27.0520833 80.3537335,26.9735251 80.1757813,26.8164062 C79.997829,26.6592874 79.9088542,26.4600707 79.9088542,26.21875 C79.9088542,25.9253458 80.0203982,25.6974835 80.2434896,25.5351562 C80.466581,25.372829 80.7803799,25.2916667 81.1848958,25.2916667 L81.6536458,25.2916667 L81.6536458,25.0703125 C81.6536458,24.9019089 81.6032991,24.7677956 81.5026042,24.6679688 C81.4019092,24.5681419 81.2534732,24.5182292 81.0572917,24.5182292 C80.8854158,24.5182292 80.74132,24.5616315 80.625,24.6484375 C80.50868,24.7352435 80.4505208,24.8402772 80.4505208,24.9635417 L79.9661458,24.9635417 C79.9661458,24.822916 80.0160585,24.6870666 80.1158854,24.5559896 C80.2157123,24.4249125 80.3511276,24.3211809 80.5221354,24.2447917 C80.6931432,24.1684024 80.8810754,24.1302083 81.0859375,24.1302083 C81.4105919,24.1302083 81.6649296,24.2113707 81.8489583,24.3736979 C82.032987,24.5360251 82.1284722,24.7595472 82.1354167,25.0442708 L82.1354167,26.3411458 C82.1354167,26.5998277 82.1684024,26.8055548 82.234375,26.9583333 L82.234375,27 L81.7291667,27 Z M80.9296875,26.6328125 C81.0807299,26.6328125 81.2239577,26.5937504 81.359375,26.515625 C81.4947923,26.4374996 81.5928816,26.3359381 81.6536458,26.2109375 L81.6536458,25.6328125 L81.2760417,25.6328125 C80.6857609,25.6328125 80.390625,25.8055538 80.390625,26.1510417 C80.390625,26.3020841 80.4409717,26.4201385 80.5416667,26.5052083 C80.6423616,26.5902782 80.7717006,26.6328125 80.9296875,26.6328125 Z M84.2526042,24.6145833 C84.1796871,24.6024305 84.1006949,24.5963542 84.015625,24.5963542 C83.6996512,24.5963542 83.4852436,24.7309014 83.3723958,25 L83.3723958,27 L82.890625,27 L82.890625,24.1822917 L83.359375,24.1822917 L83.3671875,24.5078125 C83.5251744,24.2560751 83.7491305,24.1302083 84.0390625,24.1302083 C84.132813,24.1302083 84.2039928,24.142361 84.2526042,24.1666667 L84.2526042,24.6145833 Z M85.3489583,23.5 L85.3489583,24.1822917 L85.875,24.1822917 L85.875,24.5546875 L85.3489583,24.5546875 L85.3489583,26.3020833 C85.3489583,26.4149311 85.3723956,26.4995657 85.4192708,26.5559896 C85.4661461,26.6124135 85.5460064,26.640625 85.6588542,26.640625 C85.71441,26.640625 85.7907981,26.6302084 85.8880208,26.609375 L85.8880208,27 C85.7612841,27.0347224 85.6380214,27.0520833 85.5182292,27.0520833 C85.3029503,27.0520833 85.1406255,26.9869798 85.03125,26.8567708 C84.9218745,26.7265618 84.8671875,26.5416679 84.8671875,26.3020833 L84.8671875,24.5546875 L84.3541667,24.5546875 L84.3541667,24.1822917 L84.8671875,24.1822917 L84.8671875,23.5 L85.3489583,23.5 Z" id="Automation-Smart" fill="#FFFFFF" opacity="0.5"></path>
                            <path d="M43.6666667,20.6666667 C67.7831007,20.6666667 87.3333333,20.6666667 87.3333333,19.6666667 C87.3333333,18.6666667 67.7831007,18.6666667 43.6666667,18.6666667 C19.5502326,18.6666667 0,18.6666667 0,19.6666667 C0,20.6666667 19.5502326,20.6666667 43.6666667,20.6666667 Z" id="Oval" fill="url(#linearGradient-1)" fill-rule="nonzero"></path>
                        </g>
                    </g>
                </g>
            </g>
        </g>
    </g>
</svg>