<?xml version="1.0" encoding="UTF-8"?>
<svg width="25px" height="18px" viewBox="0 0 25 18" version="1.1" xmlns="http://www.w3.org/2000/svg" xmlns:xlink="http://www.w3.org/1999/xlink">
    <!-- Generator: Sketch 52.5 (67469) - http://www.bohemiancoding.com/sketch -->
    <title>Combined Shape</title>
    <desc>Created with Sketch.</desc>
    <g id="Page-1" stroke="none" stroke-width="1" fill="none" fill-rule="evenodd">
        <g id="02.-Gioi-Thieu---Tong-Quan---Mobile" transform="translate(-335.000000, -23.000000)" fill="#911212" fill-rule="nonzero">
            <path d="M336.644115,26.2938144 C335.704621,26.2938144 335,25.5979381 335,24.6701031 C335,23.742268 335.704621,23 336.644115,23 L358.30891,23 C359.248404,23 360,23.742268 360,24.6701031 C360,25.5979381 359.248404,26.2938144 358.30891,26.2938144 L336.644115,26.2938144 Z M358.30891,30.3298969 C359.248404,30.3298969 360,31.0721649 360,32 C360,32.9278351 359.248404,33.6237113 358.30891,33.6237113 L348.04963,33.6237113 C347.110135,33.6237113 346.405514,32.9278351 346.405514,32 C346.405514,31.0721649 347.110135,30.3298969 348.04963,30.3298969 L358.30891,30.3298969 Z M358.30891,37.7061856 C359.248404,37.7061856 360,38.4020619 360,39.3298969 C360,40.257732 359.248404,41 358.30891,41 L341.726831,41 C340.787337,41 340.082716,40.257732 340.082716,39.3298969 C340.082716,38.4020619 340.787337,37.7061856 341.726831,37.7061856 L358.30891,37.7061856 Z" id="Combined-Shape"></path>
        </g>
    </g>
</svg>