<?xml version="1.0" encoding="UTF-8"?>
<svg width="14px" height="10px" viewBox="0 0 14 10" version="1.1" xmlns="http://www.w3.org/2000/svg" xmlns:xlink="http://www.w3.org/1999/xlink">
    <!-- Generator: Sketch 52.5 (67469) - http://www.bohemiancoding.com/sketch -->
    <title>Path</title>
    <desc>Created with Sketch.</desc>
    <g id="Page-1" stroke="none" stroke-width="1" fill="none" fill-rule="evenodd">
        <g id="07.1.-Du-An-Chi-Tiet" transform="translate(-867.000000, -1403.000000)" fill="#4A4A4A">
            <g id="Group-4" transform="translate(533.000000, 1386.000000)">
                <path d="M343.427437,17.1503929 C343.23671,16.949869 342.919276,16.949869 342.72188,17.1503929 C342.531153,17.3441424 342.531153,17.6666064 342.72188,17.8599043 L346.29946,21.494174 L334.493935,21.494174 C334.218736,21.4946256 334,21.7168277 334,21.996387 C334,22.2759462 334.218736,22.5053744 334.493935,22.5053744 L346.29946,22.5053744 L342.72188,26.1328697 C342.531153,26.3333936 342.531153,26.6563093 342.72188,26.8496071 C342.919276,27.050131 343.237155,27.050131 343.427437,26.8496071 L347.851953,22.3549815 C348.049349,22.161232 348.049349,21.838768 347.851953,21.6454701 L343.427437,17.1503929 Z" id="Path"></path>
            </g>
        </g>
    </g>
</svg>