<?xml version="1.0" encoding="UTF-8"?>
<svg width="6px" height="9px" viewBox="0 0 6 9" version="1.1" xmlns="http://www.w3.org/2000/svg" xmlns:xlink="http://www.w3.org/1999/xlink">
    <!-- Generator: Sketch 52.5 (67469) - http://www.bohemiancoding.com/sketch -->
    <title>Shape Copy 3</title>
    <desc>Created with Sketch.</desc>
    <g id="Page-1" stroke="none" stroke-width="1" fill="none" fill-rule="evenodd">
        <g id="07.1.-Du-An-Chi-Tiet" transform="translate(-894.000000, -896.000000)" fill="#787979" fill-rule="nonzero">
            <g id="Group-2" transform="translate(136.000000, 313.000000)">
                <g id="Group-9-Copy-2" transform="translate(742.000000, 569.000000)">
                    <path d="M16.1855196,14.1670634 C16.3093704,14.0558417 16.4557954,14 16.6250342,14 C16.7943072,14 16.9407322,14.0558417 17.0644462,14.1670634 L21.4393436,18.1045211 C21.5630575,18.2157736 21.625,18.347682 21.625,18.5 C21.625,18.652318 21.5630575,18.7841033 21.4393436,18.8955712 L17.0644804,22.8330289 C16.9407322,22.9443738 16.7943072,23 16.6250684,23 C16.4557954,23 16.3093704,22.9443738 16.1855196,22.8330289 C16.0618057,22.7216841 16,22.5898988 16,22.4374577 L16,14.5625731 C16,14.4101935 16.0618057,14.2783159 16.1855196,14.1670634 Z" id="Shape-Copy-3"></path>
                </g>
            </g>
        </g>
    </g>
</svg>