<?xml version="1.0" encoding="UTF-8"?>
<svg width="12px" height="10px" viewBox="0 0 12 10" version="1.1" xmlns="http://www.w3.org/2000/svg" xmlns:xlink="http://www.w3.org/1999/xlink">
    <!-- Generator: Sketch 52.5 (67469) - http://www.bohemiancoding.com/sketch -->
    <title>Combined Shape</title>
    <desc>Created with Sketch.</desc>
    <g id="Page-1" stroke="none" stroke-width="1" fill="none" fill-rule="evenodd">
        <g id="07.-Du-An" transform="translate(-868.000000, -1897.000000)" fill="#4A4A4A" fill-rule="nonzero">
            <g id="Group-12" transform="translate(549.000000, 1884.000000)">
                <g id="Group-6-Copy" transform="translate(324.000000, 18.000000) scale(-1, 1) translate(-324.000000, -18.000000) translate(306.000000, 0.000000)">
                    <path d="M11.1629086,17.6097999 L15.7077859,13.1597548 C15.8129033,13.0567475 15.953226,13 16.1028482,13 C16.2524704,13 16.392793,13.0567475 16.4979105,13.1597548 L16.8326092,13.4873944 C17.0503999,13.7008886 17.0503999,14.0478777 16.8326092,14.2610467 L13.0161643,17.9979268 L16.8368437,21.7389533 C16.9419612,21.8419606 17,21.9792766 17,22.1256982 C17,22.2722823 16.9419612,22.4095983 16.8368437,22.5126869 L16.5021451,22.8402452 C16.3969446,22.9432525 16.2567049,23 16.1070828,23 C15.9574606,23 15.8171379,22.9432525 15.7120205,22.8402452 L11.1629086,18.3861351 C11.057542,18.2828026 10.9996693,18.1448362 11.0000014,17.9981707 C10.9996693,17.8509362 11.057542,17.7130511 11.1629086,17.6097999 Z M17.1629086,17.6097999 L21.7077859,13.1597548 C21.8129033,13.0567475 21.953226,13 22.1028482,13 C22.2524704,13 22.392793,13.0567475 22.4979105,13.1597548 L22.8326092,13.4873944 C23.0503999,13.7008886 23.0503999,14.0478777 22.8326092,14.2610467 L19.0161643,17.9979268 L22.8368437,21.7389533 C22.9419612,21.8419606 23,21.9792766 23,22.1256982 C23,22.2722823 22.9419612,22.4095983 22.8368437,22.5126869 L22.5021451,22.8402452 C22.3969446,22.9432525 22.2567049,23 22.1070828,23 C21.9574606,23 21.8171379,22.9432525 21.7120205,22.8402452 L17.1629086,18.3861351 C17.057542,18.2828026 16.9996693,18.1448362 17.0000014,17.9981707 C16.9996693,17.8509362 17.057542,17.7130511 17.1629086,17.6097999 Z" id="Combined-Shape"></path>
                </g>
            </g>
        </g>
    </g>
</svg>