<?xml version="1.0" encoding="UTF-8"?>
<svg width="10px" height="10px" viewBox="0 0 10 10" version="1.1" xmlns="http://www.w3.org/2000/svg" xmlns:xlink="http://www.w3.org/1999/xlink">
    <!-- Generator: Sketch 52.5 (67469) - http://www.bohemiancoding.com/sketch -->
    <title>Path</title>
    <desc>Created with Sketch.</desc>
    <g id="Page-1" stroke="none" stroke-width="1" fill="none" fill-rule="evenodd">
        <g id="09.-Lien-He" transform="translate(-932.000000, -794.000000)" fill="#8C929F">
            <path d="M941.995234,801.891935 C942.016423,802.054382 941.966951,802.195625 941.847025,802.315664 L940.439047,803.713914 C940.375529,803.784536 940.292621,803.844616 940.190286,803.893999 C940.087952,803.943451 939.987399,803.975231 939.888629,803.989338 C939.881571,803.989338 939.860347,803.991155 939.825042,803.994686 C939.789806,803.9982 939.743932,804 939.687472,804 C939.553344,804 939.336307,803.977048 939.036362,803.931127 C938.736417,803.885206 938.369442,803.772194 937.935439,803.592144 C937.501331,803.41206 937.009085,803.141899 936.458615,802.781764 C935.908144,802.421648 935.322352,801.927263 934.701289,801.298716 C934.207261,800.811429 933.797924,800.345328 933.473278,799.900431 C933.148631,799.455499 932.887502,799.04413 932.689891,798.666305 C932.492263,798.288481 932.344055,797.945968 932.245249,797.638765 C932.146444,797.331562 932.079397,797.066732 932.04411,796.844275 C932.008822,796.621817 931.994707,796.44703 932.001764,796.319911 C932.008822,796.192793 932.012351,796.122171 932.012351,796.108047 C932.026466,796.009177 932.058225,795.908542 932.107627,795.806141 C932.15703,795.70374 932.217019,795.62076 932.287595,795.557201 L933.695573,794.148305 C933.794378,794.049435 933.907299,794 934.034334,794 C934.126082,794 934.207244,794.026483 934.277819,794.079449 C934.348395,794.132415 934.408384,794.19774 934.457786,794.275423 L935.590521,796.425843 C935.654039,796.538837 935.671682,796.662425 935.643452,796.796605 C935.615222,796.930786 935.555233,797.04378 935.463485,797.135588 L934.944756,797.654655 C934.930641,797.668779 934.918291,797.691731 934.907704,797.723511 C934.897118,797.75529 934.891825,797.781773 934.891825,797.80296 C934.920055,797.951264 934.983573,798.120756 935.082378,798.311433 C935.167069,798.480924 935.297633,798.687492 935.474071,798.931136 C935.65051,799.174779 935.901052,799.455482 936.225699,799.773278 C936.543288,800.098171 936.825589,800.350607 937.072603,800.530726 C937.319565,800.710742 937.526067,800.843208 937.691919,800.927954 C937.857771,801.0127 937.984807,801.0639 938.073009,801.081504 L938.205303,801.108004 C938.219418,801.108004 938.242407,801.10269 938.274131,801.092114 C938.30589,801.081504 938.328827,801.069162 938.342959,801.055021 L938.946361,800.440615 C939.073466,800.327638 939.221605,800.271141 939.391003,800.271141 C939.511016,800.271141 939.606241,800.29231 939.676816,800.3347 L939.687385,800.3347 L941.730524,801.542325 C941.878784,801.634202 941.966986,801.750693 941.995234,801.891935 Z" id="Path"></path>
        </g>
    </g>
</svg>