<?xml version="1.0" encoding="UTF-8"?>
<svg width="40px" height="66px" viewBox="0 0 40 66" version="1.1" xmlns="http://www.w3.org/2000/svg" xmlns:xlink="http://www.w3.org/1999/xlink">
    <!-- Generator: Sketch 52.5 (67469) - http://www.bohemiancoding.com/sketch -->
    <title>Group 4</title>
    <desc>Created with Sketch.</desc>
    <defs>
        <filter x="-30.0%" y="-150.0%" width="160.0%" height="400.0%" filterUnits="objectBoundingBox" id="filter-1">
            <feGaussianBlur stdDeviation="2.66666667" in="SourceGraphic"></feGaussianBlur>
        </filter>
        <linearGradient x1="-69.0002441%" y1="-49.5117188%" x2="198.31543%" y2="165.808105%" id="linearGradient-2">
            <stop stop-color="#C81211" offset="0%"></stop>
            <stop stop-color="#911212" offset="100%"></stop>
        </linearGradient>
    </defs>
    <g id="Page-1" stroke="none" stroke-width="1" fill="none" fill-rule="evenodd">
        <g id="09.-Lien-He" transform="translate(-700.000000, -325.000000)">
            <g id="Group-4" transform="translate(700.000000, 325.000000)">
                <ellipse id="Oval-3" fill="#453300" opacity="0.432404891" filter="url(#filter-1)" cx="20" cy="57.3333333" rx="13.3333333" ry="2.66666667"></ellipse>
                <path d="M18.5555556,55.8888889 C18.8518542,56.1851867 19.1481458,56.4444433 19.4444444,56.6666667 C19.6666667,56.7407411 19.8518542,56.7777778 20,56.7777778 C20.1481458,56.7777778 20.3333333,56.7407411 20.5555556,56.6666667 C20.9259307,56.4444433 21.2222222,56.1851867 21.4444444,55.8888889 C21.8888889,55.4444423 22.4814791,54.777782 23.2222222,53.8888889 C23.9629653,52.9999957 25.3148018,51.2407538 27.2777742,48.6111147 C29.2407538,45.9814684 30.9999929,43.3888996 32.5555556,40.8333369 C34.1111182,38.2777671 35.6111004,35.2963129 37.055552,31.8888889 C38.5000107,28.4814649 39.370368,25.2963129 39.6666667,22.3333333 C39.7407431,21.4444373 39.7777778,20.629632 39.7777778,19.8888889 C39.7777778,14.4073813 37.8333511,9.72224 33.9444409,5.83332978 C30.0555378,1.94442667 25.3703964,0 19.8888889,0 C14.4073813,0 9.72224,1.94442667 5.83333333,5.83332978 C1.94442524,9.72224 0,14.4073813 0,19.8888889 C0,20.7037084 0.0370366578,21.5555484 0.111111111,22.4444444 C0.407408853,25.3333476 1.25925191,28.4629476 2.66666667,31.8333298 C4.07408142,35.2037191 5.64813938,38.2592427 7.38889244,41 C9.12963556,43.7407573 10.85184,46.2592498 12.5555556,48.5555556 C14.2592711,50.8518635 15.6851769,52.6481415 16.8333298,53.9444444 C17.9814898,55.2407474 18.5555556,55.8888889 18.5555556,55.8888889 Z M19.8888889,7.11111111 C23.4444658,7.11111111 26.4629476,8.37036089 28.944448,10.8888889 C31.4259413,13.4074169 32.6666667,16.4259058 32.6666667,19.944448 C32.6666667,23.4629831 31.4259413,26.481472 28.944448,29 C26.4629476,31.518528 23.4444658,32.7777778 19.8888889,32.7777778 C16.3333191,32.7777778 13.3148302,31.518528 10.8333298,29 C8.35183644,26.481472 7.11111111,23.4629831 7.11111111,19.944448 C7.11111111,16.4259058 8.35183644,13.4074169 10.8333298,10.8888889 C13.3148302,8.37036089 16.3333191,7.11111111 19.8888889,7.11111111 Z" id="Page-1" fill="url(#linearGradient-2)"></path>
            </g>
        </g>
    </g>
</svg>