<?xml version="1.0" encoding="UTF-8"?>
<svg width="14px" height="10px" viewBox="0 0 14 10" version="1.1" xmlns="http://www.w3.org/2000/svg" xmlns:xlink="http://www.w3.org/1999/xlink">
    <!-- Generator: Sketch 52.5 (67469) - http://www.bohemiancoding.com/sketch -->
    <title>Path</title>
    <desc>Created with Sketch.</desc>
    <g id="Page-1" stroke="none" stroke-width="1" fill="none" fill-rule="evenodd">
        <g id="07.1.-Du-An-Chi-Tiet" transform="translate(-168.000000, -1403.000000)" fill="#4A4A4A">
            <g id="Group-5" transform="translate(153.000000, 1386.000000)">
                <path d="M24.4274373,17.1503929 C24.2367101,16.949869 23.919276,16.949869 23.72188,17.1503929 C23.5311527,17.3441424 23.5311527,17.6666064 23.72188,17.8599043 L27.2994601,21.494174 L15.4939346,21.494174 C15.2187361,21.4946256 15,21.7168277 15,21.996387 C15,22.2759462 15.2187361,22.5053744 15.4939346,22.5053744 L27.2994601,22.5053744 L23.72188,26.1328697 C23.5311527,26.3333936 23.5311527,26.6563093 23.72188,26.8496071 C23.919276,27.050131 24.2371547,27.050131 24.4274373,26.8496071 L28.851953,22.3549815 C29.049349,22.161232 29.049349,21.838768 28.851953,21.6454701 L24.4274373,17.1503929 Z" id="Path" transform="translate(22.000000, 22.000000) scale(-1, 1) translate(-22.000000, -22.000000) "></path>
            </g>
        </g>
    </g>
</svg>