<?xml version="1.0" encoding="UTF-8"?>
<svg width="11px" height="10px" viewBox="0 0 11 10" version="1.1" xmlns="http://www.w3.org/2000/svg" xmlns:xlink="http://www.w3.org/1999/xlink">
    <!-- Generator: Sketch 52.5 (67469) - http://www.bohemiancoding.com/sketch -->
    <title>Combined Shape</title>
    <desc>Created with Sketch.</desc>
    <g id="Page-1" stroke="none" stroke-width="1" fill="none" fill-rule="evenodd">
        <g id="09.-Lien-He" transform="translate(-932.000000, -832.000000)" fill="#8C929F">
            <path d="M934.411281,832 L940.589771,832 L940.589771,833.771673 L934.411281,833.771673 L934.411281,832 Z M942.465134,834.409769 C942.761152,834.409769 942.999649,834.650501 943,834.945546 L943,838.881702 L941.388037,838.881702 L941.388037,836.493307 L933.613366,836.493307 L933.613366,838.881702 L932,838.881702 L932,834.945546 C932,834.650501 932.240953,834.409769 932.537672,834.409769 L942.465134,834.409769 Z M933.525683,835.722405 C933.761726,835.722405 933.954277,835.530731 933.954628,835.294555 C933.954628,835.058378 933.762076,834.866704 933.525683,834.866704 C933.289991,834.866704 933.09744,835.058378 933.09744,835.294555 C933.09744,835.531081 933.289991,835.722405 933.525683,835.722405 Z M941.8496,835.4617 L941.8496,834.947649 L934.411281,834.947649 L934.411281,835.4617 L941.8496,835.4617 Z M939.878487,841.266242 L939.887256,837.126148 L940.666932,837.126148 L940.666932,841.16217 C940.666932,841.625061 940.603801,842 940.112776,842 C940.112776,842 935.638842,842 934.97175,842 C934.305711,842 934.334821,841.351742 934.334821,841.351742 L934.334821,837.126148 L935.114498,837.126148 L935.114498,841.274301 L936.418168,841.266242 L939.878487,841.266242 Z M935.499952,838.248511 L939.431304,838.248511 L939.431304,838.926904 L935.499952,838.926904 L935.499952,838.248511 Z M935.535376,839.785409 L939.468131,839.785409 L939.468131,840.462751 L935.535376,840.462751 L935.535376,839.785409 Z" id="Combined-Shape"></path>
        </g>
    </g>
</svg>