<?xml version="1.0" encoding="UTF-8"?>
<svg width="12px" height="12px" viewBox="0 0 12 12" version="1.1" xmlns="http://www.w3.org/2000/svg" xmlns:xlink="http://www.w3.org/1999/xlink">
    <!-- Generator: Sketch 52.5 (67469) - http://www.bohemiancoding.com/sketch -->
    <title>Page 1</title>
    <desc>Created with Sketch.</desc>
    <g id="Page-1" stroke="none" stroke-width="1" fill="none" fill-rule="evenodd">
        <g id="08.2.-Chi-Tiet-Tin-Tuc" transform="translate(-284.000000, -272.000000)" fill="#4A4A4A">
            <g id="Group" transform="translate(284.000000, 269.000000)">
                <path d="M6.30985915,5.98591549 L6.30985915,9.14084507 L9.01408451,10.7464789 L8.56338028,11.5070423 L5.4084507,9.5915493 L5.4084507,5.98591549 L6.30985915,5.98591549 Z M6,13.8169014 C7.31456,13.8169014 8.44600428,13.3427278 9.3943671,12.3943671 C10.3427281,11.4460043 10.8169014,10.31456 10.8169014,9 C10.8169014,7.68544 10.3427281,6.55399572 9.3943671,5.6056329 C8.44600428,4.65727189 7.31456,4.18309859 6,4.18309859 C4.68544,4.18309859 3.55399572,4.65727189 2.6056329,5.6056329 C1.65727225,6.55399572 1.18309859,7.68544 1.18309859,9 C1.18309859,10.31456 1.65727225,11.4460043 2.6056329,12.3943671 C3.55399572,13.3427278 4.68544,13.8169014 6,13.8169014 Z M6,3 C7.65258997,3 9.06572259,3.58684935 10.2394375,4.76056248 C11.4131506,5.93427741 12,7.34741003 12,9 C12,10.65259 11.4131506,12.0657226 10.2394375,13.2394366 C9.06572259,14.4131514 7.65258997,15 6,15 C4.34741003,15 2.93427741,14.4131514 1.76056338,13.2394366 C0.586848631,12.0657226 0,10.65259 0,9 C0,7.34741003 0.586848631,5.93427741 1.76056338,4.76056248 C2.93427741,3.58684935 4.34741003,3 6,3 Z" id="Page-1"></path>
            </g>
        </g>
    </g>
</svg>